<svg width="116" height="37" viewBox="0 0 116 37" fill="none" xmlns="http://www.w3.org/2000/svg">
<g id="apple-store.svg">
<path id="Vector" d="M111.874 35.5645H4.06C1.82286 35.5645 0 33.7333 0 31.4962V5.25531C0 3.01817 1.82286 1.19531 4.06 1.19531H111.874C114.111 1.19531 116 3.01817 116 5.25531V31.4962C116 33.7333 114.111 35.5645 111.874 35.5645Z" fill="#A6A6A6"/>
<path id="Vector_2" d="M115.171 31.4966C115.171 33.3112 113.696 34.786 111.873 34.786H4.05943C2.23658 34.786 0.761719 33.3112 0.761719 31.4966V5.25572C0.761719 3.44115 2.23658 1.95801 4.05943 1.95801H111.873C113.696 1.95801 115.171 3.43286 115.171 5.25572V31.4966Z" fill="black"/>
<g id="Group">
<path id="Vector_3" d="M25.8852 18.1983C25.8604 15.4309 28.1555 14.0803 28.255 14.0223C26.9541 12.1331 24.9407 11.868 24.2364 11.8514C22.5461 11.6774 20.9055 12.8623 20.0438 12.8623C19.1821 12.8623 17.8398 11.868 16.4147 11.9011C14.5752 11.926 12.8518 12.9949 11.9155 14.6437C9.96839 18.016 11.4184 22.9709 13.2827 25.6969C14.219 27.0309 15.3044 28.5223 16.7295 28.4726C18.1298 28.4146 18.6435 27.586 20.3338 27.586C22.0241 27.586 22.4964 28.4726 23.9464 28.4394C25.4461 28.4146 26.3907 27.0971 27.2855 25.7549C28.3627 24.222 28.7935 22.7223 28.8101 22.6394C28.777 22.6311 25.9018 21.5291 25.8687 18.2149L25.8852 18.1983Z" fill="white"/>
<path id="Vector_4" d="M23.143 10.0532C23.897 9.1169 24.4107 7.83261 24.2616 6.54004C23.1761 6.58975 21.8173 7.29404 21.0301 8.21375C20.3341 9.02575 19.721 10.3515 19.8784 11.5943C21.0964 11.6855 22.3559 10.9812 23.1347 10.0532H23.143Z" fill="white"/>
</g>
<g id="Group_2">
<path id="Vector_5" d="M46.0943 28.2653H44.1388L43.07 24.9096H39.358L38.3388 28.2653H36.4414L40.1203 16.8311H42.3905L46.086 28.2653H46.0943ZM42.7551 23.5011L41.7857 20.5182C41.6863 20.2116 41.4957 19.4908 41.2057 18.3639H41.1725C41.0565 18.8528 40.8825 19.5653 40.6257 20.5182L39.6728 23.5011H42.7468H42.7551Z" fill="white"/>
<path id="Vector_6" d="M55.5649 24.0393C55.5649 25.4395 55.1838 26.5498 54.4298 27.3618C53.7503 28.0827 52.9052 28.4473 51.9026 28.4473C50.8172 28.4473 50.0383 28.0578 49.5578 27.279H49.5246V31.6207H47.6935V22.7301C47.6935 21.8518 47.6686 20.9404 47.6272 20.0124H49.2346L49.3341 21.3215H49.3672C49.9803 20.3355 50.9083 19.8467 52.1512 19.8467C53.1206 19.8467 53.9326 20.2278 54.5872 20.9984C55.2418 21.769 55.5649 22.7798 55.5649 24.0393ZM53.7006 24.1055C53.7006 23.3018 53.5183 22.639 53.1538 22.117C52.7561 21.5701 52.2258 21.305 51.5629 21.305C51.1072 21.305 50.7012 21.4541 50.3366 21.7524C49.9721 22.0507 49.7318 22.4484 49.6158 22.929C49.5578 23.1527 49.5329 23.3433 49.5329 23.4841V24.8595C49.5329 25.4561 49.7152 25.9615 50.0881 26.3758C50.4609 26.7901 50.9332 26.9973 51.5215 26.9973C52.2092 26.9973 52.7478 26.7321 53.1289 26.2018C53.5101 25.6715 53.7089 24.9673 53.7089 24.0973L53.7006 24.1055Z" fill="white"/>
<path id="Vector_7" d="M65.0447 24.0393C65.0447 25.4395 64.6635 26.5498 63.9095 27.3618C63.2301 28.0827 62.385 28.4473 61.3824 28.4473C60.297 28.4473 59.5181 28.0578 59.0458 27.279H59.0127V31.6207H57.1815V22.7301C57.1815 21.8518 57.1567 20.9404 57.1152 20.0124H58.7227L58.8221 21.3215H58.8552C59.4684 20.3355 60.3964 19.8467 61.6392 19.8467C62.6087 19.8467 63.4207 20.2278 64.0752 20.9984C64.7215 21.769 65.053 22.7798 65.053 24.0393H65.0447ZM63.1804 24.1055C63.1804 23.3018 62.9981 22.639 62.6335 22.117C62.2358 21.5701 61.7055 21.305 61.0427 21.305C60.5869 21.305 60.1809 21.4541 59.8081 21.7524C59.4435 22.0507 59.2032 22.4484 59.0872 22.929C59.0292 23.1527 59.0044 23.3433 59.0044 23.4841V24.8595C59.0044 25.4561 59.1867 25.9615 59.5512 26.3758C59.9158 26.7901 60.3964 26.9973 60.9847 26.9973C61.6724 26.9973 62.2109 26.7321 62.5921 26.2018C62.9732 25.6715 63.1721 24.9673 63.1721 24.0973L63.1804 24.1055Z" fill="white"/>
<path id="Vector_8" d="M75.6497 25.0585C75.6497 26.0279 75.31 26.8233 74.6305 27.4365C73.8848 28.1076 72.8491 28.439 71.5151 28.439C70.2805 28.439 69.2945 28.1988 68.5488 27.7265L68.9714 26.2019C69.7751 26.6908 70.6617 26.931 71.6228 26.931C72.3105 26.931 72.8491 26.7736 73.2385 26.467C73.6197 26.1522 73.8103 25.7379 73.8103 25.2159C73.8103 24.7519 73.6528 24.3625 73.338 24.0476C73.0231 23.7328 72.4928 23.4345 71.7637 23.161C69.7585 22.4153 68.7643 21.3216 68.7643 19.8799C68.7643 18.9436 69.1123 18.173 69.8165 17.5682C70.5125 16.9716 71.4488 16.665 72.6171 16.665C73.6611 16.665 74.5228 16.8473 75.2105 17.2119L74.7548 18.7033C74.1085 18.3553 73.3794 18.1813 72.5674 18.1813C71.9211 18.1813 71.4157 18.3388 71.0594 18.6536C70.7528 18.9353 70.6037 19.2833 70.6037 19.6893C70.6037 20.145 70.7777 20.5179 71.1257 20.8079C71.4323 21.0813 71.9874 21.3713 72.7911 21.6945C73.7771 22.0922 74.498 22.5562 74.962 23.0865C75.426 23.6168 75.658 24.2796 75.658 25.0668L75.6497 25.0585Z" fill="white"/>
<path id="Vector_9" d="M81.7072 21.3966H79.6854V25.3986C79.6854 26.4177 80.0417 26.9232 80.7543 26.9232C81.0857 26.9232 81.3509 26.8983 81.5663 26.8403L81.616 28.2323C81.2514 28.3649 80.7792 28.4312 80.1909 28.4312C79.47 28.4312 78.8983 28.2074 78.4923 27.7683C78.0863 27.3292 77.8792 26.5834 77.8792 25.5477V21.3883H76.6777V20.0129H77.8792V18.5049L79.6772 17.958V20.0129H81.6989V21.3883L81.7072 21.3966Z" fill="white"/>
<path id="Vector_10" d="M90.8205 24.0724C90.8205 25.3401 90.4559 26.3841 89.7351 27.1961C88.9728 28.033 87.9702 28.4556 86.7108 28.4556C85.4514 28.4556 84.5399 28.0579 83.8191 27.2541C83.0982 26.4504 82.7419 25.4396 82.7419 24.2216C82.7419 23.0036 83.1148 21.8933 83.8522 21.0813C84.5897 20.2693 85.5922 19.8633 86.8434 19.8633C88.0945 19.8633 89.0308 20.261 89.7599 21.0647C90.4642 21.8436 90.8122 22.8461 90.8122 24.0807L90.8205 24.0724ZM88.9231 24.1304C88.9231 23.3681 88.7574 22.7219 88.4342 22.175C88.0531 21.5204 87.4979 21.189 86.7937 21.189C86.0894 21.189 85.5011 21.5204 85.1117 22.175C84.7802 22.7219 84.6228 23.3847 84.6228 24.1636C84.6228 24.9424 84.7885 25.5721 85.1117 26.119C85.5094 26.7736 86.0645 27.105 86.7771 27.105C87.4897 27.105 88.0282 26.7736 88.4177 26.1024C88.7574 25.5473 88.9231 24.8927 88.9231 24.1304Z" fill="white"/>
<path id="Vector_11" d="M96.7693 21.6281C96.587 21.595 96.3965 21.5784 96.1893 21.5784C95.543 21.5784 95.0459 21.8187 94.6979 22.3075C94.3913 22.7384 94.2422 23.277 94.2422 23.9398V28.265H92.411L92.4276 22.6141C92.4276 21.6613 92.4028 20.7995 92.3613 20.0207H93.9605L94.0268 21.595H94.0765C94.267 21.0564 94.5736 20.6173 94.9962 20.2858C95.4022 19.9875 95.8413 19.8467 96.3219 19.8467C96.4876 19.8467 96.645 19.855 96.7776 19.8798V21.6281H96.7693Z" fill="white"/>
<path id="Vector_12" d="M104.964 23.7497C104.964 24.0811 104.939 24.3546 104.897 24.5783H99.404C99.4289 25.3903 99.694 26.0117 100.199 26.4426C100.663 26.8237 101.26 27.0226 101.997 27.0226C102.809 27.0226 103.555 26.89 104.218 26.6331L104.508 27.9008C103.729 28.2406 102.809 28.4063 101.741 28.4063C100.465 28.4063 99.462 28.0334 98.7246 27.2794C97.9954 26.5254 97.6309 25.5146 97.6309 24.2551C97.6309 22.9957 97.9706 21.9766 98.65 21.148C99.3626 20.2697 100.324 19.8223 101.533 19.8223C102.743 19.8223 103.621 20.2614 104.235 21.148C104.715 21.8523 104.964 22.714 104.964 23.7414V23.7497ZM103.215 23.2774C103.224 22.7306 103.108 22.2666 102.859 21.8688C102.544 21.3634 102.055 21.1066 101.401 21.1066C100.804 21.1066 100.315 21.3551 99.9426 21.8523C99.636 22.25 99.4537 22.7223 99.404 23.2774H103.224H103.215Z" fill="white"/>
</g>
<g id="Group_3">
<path id="Vector_13" d="M42.1488 9.79682C42.1488 10.8077 41.8422 11.57 41.2374 12.0837C40.674 12.556 39.8785 12.788 38.8428 12.788C38.3291 12.788 37.89 12.7631 37.5254 12.7217V7.1951C38.006 7.12053 38.5197 7.0791 39.0748 7.0791C40.0608 7.0791 40.7982 7.29453 41.3037 7.7171C41.8671 8.19767 42.1488 8.89367 42.1488 9.79682ZM41.196 9.82167C41.196 9.1671 41.022 8.66167 40.674 8.31367C40.326 7.96567 39.8205 7.79167 39.1494 7.79167C38.8677 7.79167 38.6274 7.80824 38.4202 7.84967V12.0505C38.528 12.0671 38.7351 12.0754 39.0251 12.0754C39.7128 12.0754 40.2431 11.8848 40.6242 11.5037C41.0054 11.1225 41.1877 10.5591 41.1877 9.82996L41.196 9.82167Z" fill="white"/>
<path id="Vector_14" d="M47.1778 10.6828C47.1778 11.3042 47.0038 11.8179 46.6476 12.2156C46.2747 12.6299 45.7776 12.8288 45.1644 12.8288C44.5513 12.8288 44.0956 12.6299 43.7393 12.2405C43.383 11.8428 43.209 11.3456 43.209 10.749C43.209 10.1525 43.3913 9.60561 43.7558 9.2079C44.1204 8.81019 44.6093 8.61133 45.2307 8.61133C45.8521 8.61133 46.2996 8.81019 46.6641 9.19961C47.0038 9.58076 47.1778 10.0779 47.1778 10.6828ZM46.2416 10.7159C46.2416 10.343 46.1587 10.0199 46.0013 9.75476C45.8107 9.43161 45.5456 9.27419 45.1976 9.27419C44.8496 9.27419 44.5596 9.43161 44.369 9.75476C44.2116 10.0199 44.1287 10.3513 44.1287 10.7325C44.1287 11.1136 44.2116 11.4285 44.369 11.6936C44.5678 12.0168 44.833 12.1742 45.1893 12.1742C45.5456 12.1742 45.8024 12.0085 45.993 11.677C46.1587 11.4036 46.2416 11.0805 46.2416 10.7076V10.7159Z" fill="white"/>
<path id="Vector_15" d="M53.9307 8.68652L52.663 12.7382H51.8345L51.3125 10.9817C51.1799 10.5425 51.0722 10.1034 50.9893 9.67252H50.9727C50.8982 10.12 50.7822 10.5508 50.6496 10.9817L50.0945 12.7382H49.2576L48.0645 8.68652H48.9925L49.4482 10.6088C49.5559 11.0645 49.647 11.4954 49.7216 11.9097H49.7382C49.8045 11.57 49.9122 11.1391 50.0696 10.6171L50.6413 8.68652H51.3787L51.9256 10.5757C52.0582 11.0397 52.1659 11.4788 52.2487 11.9097H52.2736C52.3316 11.4954 52.4227 11.048 52.547 10.5757L53.0359 8.68652H53.9225H53.9307Z" fill="white"/>
<path id="Vector_16" d="M58.5961 12.7379H57.6929V10.4179C57.6929 9.70529 57.4195 9.349 56.8726 9.349C56.6075 9.349 56.3921 9.44843 56.2181 9.64729C56.0523 9.84614 55.9695 10.0781 55.9695 10.3433V12.7461H55.0663V9.85443C55.0663 9.49814 55.0581 9.117 55.0332 8.69443H55.8286L55.8701 9.32414H55.8949C56.0026 9.12529 56.1601 8.96786 56.3589 8.83529C56.5992 8.68614 56.8726 8.61157 57.1792 8.61157C57.5603 8.61157 57.8752 8.73586 58.1238 8.97614C58.4386 9.27443 58.5878 9.72186 58.5878 10.3184V12.7461L58.5961 12.7379Z" fill="white"/>
<path id="Vector_17" d="M61.0809 12.7378H60.1777V6.83008H61.0809V12.7378Z" fill="white"/>
<path id="Vector_18" d="M66.3849 10.6828C66.3849 11.3042 66.2109 11.8179 65.8546 12.2156C65.4817 12.6299 64.9846 12.8288 64.3714 12.8288C63.7583 12.8288 63.3026 12.6299 62.9463 12.2405C62.59 11.8428 62.416 11.3456 62.416 10.749C62.416 10.1525 62.5983 9.60561 62.9629 9.2079C63.3274 8.81019 63.8163 8.61133 64.4294 8.61133C65.0426 8.61133 65.4983 8.81019 65.8629 9.19961C66.2026 9.58076 66.3766 10.0779 66.3766 10.6828H66.3849ZM65.4486 10.7159C65.4486 10.343 65.3657 10.0199 65.2083 9.75476C65.0177 9.43161 64.7526 9.27419 64.4046 9.27419C64.0566 9.27419 63.7666 9.43161 63.576 9.75476C63.4186 10.0199 63.3357 10.3513 63.3357 10.7325C63.3357 11.1136 63.4186 11.4285 63.576 11.6936C63.7749 12.0168 64.04 12.1742 64.3963 12.1742C64.7526 12.1742 65.0094 12.0085 65.2 11.677C65.3657 11.4036 65.4486 11.0805 65.4486 10.7076V10.7159Z" fill="white"/>
<path id="Vector_19" d="M70.743 12.7381H69.931L69.8647 12.2741H69.8398C69.5664 12.6469 69.1687 12.8292 68.655 12.8292C68.2738 12.8292 67.9672 12.7049 67.727 12.4647C67.5115 12.2409 67.4121 11.9675 67.4121 11.6361C67.4121 11.1389 67.6193 10.7661 68.0335 10.5009C68.4478 10.2358 69.0278 10.1115 69.7818 10.1198V10.0452C69.7818 9.51494 69.5001 9.24152 68.9367 9.24152C68.539 9.24152 68.1827 9.34094 67.8844 9.5398L67.7021 8.95152C68.075 8.71952 68.5473 8.60352 69.0941 8.60352C70.1547 8.60352 70.685 9.15866 70.685 10.2772V11.7687C70.685 12.1747 70.7015 12.4978 70.743 12.7381ZM69.8067 11.3461V10.7247C68.8124 10.7081 68.3152 10.9815 68.3152 11.5449C68.3152 11.7604 68.3733 11.9178 68.4893 12.0172C68.6053 12.1249 68.7544 12.1747 68.9284 12.1747C69.1273 12.1747 69.3095 12.1084 69.4753 11.9841C69.641 11.8598 69.7487 11.7024 69.7901 11.5035C69.7984 11.4621 69.8067 11.4041 69.8067 11.3461Z" fill="white"/>
<path id="Vector_20" d="M75.855 12.7378H75.0596L75.0182 12.0832H74.9933C74.7365 12.5804 74.3056 12.8289 73.6925 12.8289C73.2036 12.8289 72.7976 12.6384 72.4745 12.2572C72.1513 11.8761 71.9939 11.3789 71.9939 10.7658C71.9939 10.1112 72.1679 9.58094 72.5159 9.17494C72.8556 8.79379 73.2699 8.61151 73.767 8.61151C74.3139 8.61151 74.695 8.79379 74.9105 9.15836H74.927V6.83008H75.8302V11.6441C75.8302 12.0418 75.8385 12.3981 75.8633 12.7378H75.855ZM74.9188 11.0309V10.3515C74.9188 10.2355 74.9105 10.1361 74.8939 10.0698C74.8442 9.85436 74.7365 9.67208 74.5708 9.52294C74.405 9.37379 74.1979 9.29922 73.9659 9.29922C73.6262 9.29922 73.3693 9.43179 73.1705 9.69694C72.9799 9.96208 72.8805 10.3018 72.8805 10.7244C72.8805 11.1469 72.9716 11.4535 73.1539 11.7021C73.3528 11.9672 73.6096 12.0998 73.941 12.0998C74.2393 12.0998 74.4713 11.9921 74.6536 11.7684C74.8276 11.5612 74.9105 11.3126 74.9105 11.0309H74.9188Z" fill="white"/>
<path id="Vector_21" d="M83.5609 10.683C83.5609 11.3044 83.3869 11.8181 83.0306 12.2159C82.6578 12.6301 82.1606 12.829 81.5475 12.829C80.9343 12.829 80.4786 12.6301 80.1223 12.2407C79.766 11.843 79.592 11.3459 79.592 10.7493C79.592 10.1527 79.7743 9.60586 80.1389 9.20814C80.5035 8.81043 80.9923 8.61157 81.6138 8.61157C82.2352 8.61157 82.6826 8.81043 83.0472 9.19986C83.3869 9.581 83.5609 10.0781 83.5609 10.683ZM82.6246 10.7161C82.6246 10.3433 82.5418 10.0201 82.3843 9.755C82.1938 9.43186 81.9286 9.27443 81.5723 9.27443C81.216 9.27443 80.9343 9.43186 80.7438 9.755C80.5863 10.0201 80.5035 10.3516 80.5035 10.7327C80.5035 11.1139 80.5863 11.4287 80.7438 11.6939C80.9426 12.017 81.2078 12.1744 81.564 12.1744C81.9203 12.1744 82.1772 12.0087 82.376 11.6773C82.5418 11.4039 82.6246 11.0807 82.6246 10.7079V10.7161Z" fill="white"/>
<path id="Vector_22" d="M88.4003 12.7376H87.4971V10.4176C87.4971 9.70504 87.2237 9.34876 86.6768 9.34876C86.4117 9.34876 86.1963 9.44819 86.0306 9.64704C85.8648 9.8459 85.782 10.0779 85.782 10.343V12.7459H84.8788V9.85419C84.8788 9.4979 84.8706 9.11676 84.8457 8.69419H85.6328L85.6743 9.3239H85.6991C85.8068 9.12504 85.9643 8.96761 86.1631 8.83504C86.4117 8.6859 86.6768 8.61133 86.9834 8.61133C87.3646 8.61133 87.6711 8.73561 87.928 8.9759C88.2428 9.27418 88.392 9.72161 88.392 10.3182V12.7459L88.4003 12.7376Z" fill="white"/>
<path id="Vector_23" d="M94.4648 9.36509H93.4705V11.3288C93.4705 11.8259 93.6445 12.0828 93.9925 12.0828C94.1499 12.0828 94.2908 12.0662 94.3902 12.0414L94.415 12.7208C94.241 12.7871 94.0008 12.8202 93.719 12.8202C93.3628 12.8202 93.0893 12.7125 92.8905 12.4971C92.6916 12.2817 92.5922 11.9171 92.5922 11.4034V9.3568H92.0039V8.68566H92.5922V7.93995L93.4788 7.6748V8.68566H94.473V9.36509H94.4648Z" fill="white"/>
<path id="Vector_24" d="M99.2285 12.7378H98.3253V10.4344C98.3253 9.70522 98.0519 9.34894 97.5133 9.34894C97.099 9.34894 96.809 9.55608 96.6516 9.97865C96.6267 10.0698 96.6102 10.1775 96.6102 10.3018V12.7378H95.707V6.83008H96.6102V9.27436H96.6267C96.9085 8.82694 97.3145 8.61151 97.8447 8.61151C98.2176 8.61151 98.5242 8.73579 98.7727 8.97608C99.0793 9.28265 99.2285 9.73836 99.2285 10.3349V12.7461V12.7378Z" fill="white"/>
<path id="Vector_25" d="M104.151 10.5175C104.151 10.6749 104.142 10.8158 104.118 10.9235H101.416C101.425 11.3212 101.557 11.6278 101.806 11.8432C102.038 12.0338 102.328 12.1249 102.692 12.1249C103.09 12.1249 103.455 12.0586 103.786 11.9343L103.927 12.5558C103.546 12.7215 103.09 12.8043 102.568 12.8043C101.938 12.8043 101.45 12.6221 101.093 12.2492C100.737 11.8763 100.555 11.3875 100.555 10.7578C100.555 10.1281 100.72 9.6392 101.052 9.2332C101.4 8.80234 101.872 8.58691 102.469 8.58691C103.065 8.58691 103.496 8.80234 103.794 9.2332C104.035 9.57291 104.159 10.0038 104.159 10.5092L104.151 10.5175ZM103.289 10.2855C103.289 10.0203 103.239 9.78834 103.115 9.59777C102.958 9.3492 102.717 9.22491 102.402 9.22491C102.112 9.22491 101.872 9.3492 101.69 9.58949C101.541 9.78834 101.45 10.0203 101.425 10.2938H103.297L103.289 10.2855Z" fill="white"/>
</g>
</g>
</svg>
