<svg width="116" height="37" viewBox="0 0 116 37" fill="none" xmlns="http://www.w3.org/2000/svg">
<g id="google-play.svg">
<path id="Vector" d="M111.7 1.19531H4.30029C1.9253 1.19531 0 3.12062 0 5.4956V31.2642C0 33.6392 1.9253 35.5645 4.30029 35.5645H111.7C114.075 35.5645 116 33.6392 116 31.2642V5.4956C116 3.12062 114.075 1.19531 111.7 1.19531Z" fill="black"/>
<path id="Vector_2" d="M111.7 1.8835C113.688 1.8835 115.312 3.49921 115.312 5.49607V31.2729C115.312 33.2615 113.697 34.8855 111.7 34.8855H4.30029C2.31171 34.8855 0.687714 33.2698 0.687714 31.2729V5.48779C0.687714 3.49921 2.30343 1.8835 4.30029 1.8835H111.7ZM111.7 1.19579H4.30029C1.93057 1.19579 0 3.12636 0 5.48779V31.2646C0 33.6261 1.93057 35.5649 4.30029 35.5649H111.7C114.061 35.5649 116 33.6344 116 31.2646V5.48779C116 3.12636 114.069 1.1875 111.7 1.1875V1.19579Z" fill="#A6A6A6"/>
<g id="Group">
<path id="Vector_3" d="M40.7408 9.99473C40.7408 10.7156 40.5253 11.2873 40.1028 11.7182C39.6139 12.2236 38.9842 12.4804 38.2053 12.4804C37.4265 12.4804 36.8299 12.2236 36.3079 11.7099C35.7859 11.1962 35.5291 10.5499 35.5291 9.78758C35.5291 9.0253 35.7859 8.3873 36.3079 7.8653C36.8299 7.35158 37.4596 7.09473 38.2053 7.09473C38.5782 7.09473 38.9262 7.1693 39.2659 7.31016C39.6056 7.45101 39.8708 7.64987 40.0696 7.89016L39.6139 8.34587C39.2742 7.93987 38.8019 7.73273 38.2053 7.73273C37.6585 7.73273 37.1945 7.9233 36.7968 8.30444C36.3991 8.68558 36.2002 9.18273 36.2002 9.78758C36.2002 10.3924 36.3991 10.8896 36.7968 11.2707C37.1945 11.6519 37.6585 11.8424 38.2053 11.8424C38.7771 11.8424 39.2576 11.6519 39.6471 11.2707C39.8956 11.0222 40.0365 10.6742 40.0779 10.2267H38.2053V9.6053H40.6993C40.7242 9.73787 40.7325 9.87044 40.7325 9.99473H40.7408Z" fill="white" stroke="white" stroke-width="0.165714" stroke-miterlimit="10"/>
<path id="Vector_4" d="M44.7008 7.84015H42.356V9.47243H44.4771V10.0939H42.356V11.7261H44.7008V12.3559H41.6931V7.20215H44.7008V7.83186V7.84015Z" fill="white" stroke="white" stroke-width="0.165714" stroke-miterlimit="10"/>
<path id="Vector_5" d="M47.5028 12.3647H46.8399V7.84065H45.3982V7.21094H48.9445V7.84065H47.5028V12.3647Z" fill="white" stroke="white" stroke-width="0.165714" stroke-miterlimit="10"/>
<path id="Vector_6" d="M51.5037 12.3647V7.21094H52.1665V12.3647H51.5037Z" fill="white" stroke="white" stroke-width="0.165714" stroke-miterlimit="10"/>
<path id="Vector_7" d="M55.1004 12.3647H54.4376V7.84065H52.9958V7.21094H56.5421V7.84065H55.1004V12.3647Z" fill="white" stroke="white" stroke-width="0.165714" stroke-miterlimit="10"/>
<path id="Vector_8" d="M63.253 11.7016C62.7475 12.2236 62.1178 12.4804 61.3638 12.4804C60.6098 12.4804 59.9801 12.2236 59.4747 11.7016C58.9693 11.1796 58.7124 10.5416 58.7124 9.78758C58.7124 9.03358 58.961 8.39558 59.4747 7.87358C59.9801 7.35158 60.6098 7.09473 61.3638 7.09473C62.1178 7.09473 62.7393 7.35987 63.253 7.88187C63.7584 8.40387 64.0153 9.04187 64.0153 9.78758C64.0153 10.5333 63.7584 11.1796 63.253 11.7016ZM59.9635 11.2707C60.3447 11.6602 60.8087 11.8507 61.3638 11.8507C61.919 11.8507 62.383 11.6602 62.7641 11.2707C63.1453 10.8813 63.3358 10.3924 63.3358 9.78758C63.3358 9.18273 63.1453 8.69387 62.7641 8.30444C62.383 7.91501 61.919 7.72444 61.3638 7.72444C60.8087 7.72444 60.3447 7.91501 59.9635 8.30444C59.5824 8.69387 59.3918 9.18273 59.3918 9.78758C59.3918 10.3924 59.5824 10.8813 59.9635 11.2707Z" fill="white" stroke="white" stroke-width="0.165714" stroke-miterlimit="10"/>
<path id="Vector_9" d="M64.9353 12.3647V7.21094H65.739L68.2413 11.2212H68.2662L68.2413 10.2269V7.21094H68.9042V12.3647H68.2164L65.5982 8.16379H65.5733L65.5982 9.15808V12.3729H64.9353V12.3647Z" fill="white" stroke="white" stroke-width="0.165714" stroke-miterlimit="10"/>
</g>
<path id="Vector_10" d="M58.5465 19.8882C56.5248 19.8882 54.876 21.421 54.876 23.5422C54.876 25.6633 56.5248 27.1962 58.5465 27.1962C60.5682 27.1962 62.2171 25.6467 62.2171 23.5422C62.2171 21.4376 60.5682 19.8882 58.5465 19.8882ZM58.5465 25.7544C57.4362 25.7544 56.4834 24.843 56.4834 23.5422C56.4834 22.2413 57.4362 21.3299 58.5465 21.3299C59.6568 21.3299 60.6097 22.233 60.6097 23.5422C60.6097 24.8513 59.6568 25.7544 58.5465 25.7544ZM50.5425 19.8882C48.5208 19.8882 46.872 21.421 46.872 23.5422C46.872 25.6633 48.5208 27.1962 50.5425 27.1962C52.5642 27.1962 54.2131 25.6467 54.2131 23.5422C54.2131 21.4376 52.5642 19.8882 50.5425 19.8882ZM50.5425 25.7544C49.4322 25.7544 48.4794 24.843 48.4794 23.5422C48.4794 22.2413 49.4322 21.3299 50.5425 21.3299C51.6528 21.3299 52.6057 22.233 52.6057 23.5422C52.6057 24.8513 51.6528 25.7544 50.5425 25.7544ZM41.0222 21.0067V22.5562H44.7342C44.6265 23.4262 44.3365 24.0642 43.8891 24.5116C43.3505 25.0502 42.5054 25.6467 41.0222 25.6467C38.7354 25.6467 36.954 23.8073 36.954 21.5204C36.954 19.2336 38.7437 17.3942 41.0222 17.3942C42.2568 17.3942 43.1517 17.8747 43.8145 18.5044L44.9082 17.4107C43.9802 16.5242 42.7457 15.8447 41.0222 15.8447C37.8902 15.8447 35.2637 18.3884 35.2637 21.5204C35.2637 24.6524 37.8902 27.1962 41.0222 27.1962C42.7125 27.1962 43.9885 26.641 44.9828 25.6053C46.0102 24.5779 46.3251 23.1444 46.3251 21.9762C46.3251 21.6199 46.3002 21.2802 46.2422 21.0067H41.0222ZM79.9568 22.2082C79.6502 21.3879 78.7222 19.8799 76.8248 19.8799C74.9274 19.8799 73.378 21.363 73.378 23.5339C73.378 25.5804 74.9274 27.1879 77.0071 27.1879C78.6808 27.1879 79.6502 26.1604 80.0562 25.5722L78.8134 24.7436C78.3991 25.3567 77.8274 25.7544 77.0154 25.7544C76.2034 25.7544 75.6151 25.3816 75.2422 24.6442L80.1308 22.6224L79.9651 22.2082H79.9568ZM74.9771 23.4262C74.9357 22.0176 76.0708 21.2967 76.8911 21.2967C77.5291 21.2967 78.0677 21.6116 78.25 22.0756L74.9854 23.4344L74.9771 23.4262ZM71 26.9724H72.6074V16.2342H71V26.9724ZM68.3734 20.7002H68.3154C67.9591 20.2693 67.2631 19.8799 66.3931 19.8799C64.562 19.8799 62.8882 21.4873 62.8882 23.5504C62.8882 25.6136 64.562 27.1879 66.3931 27.1879C67.2631 27.1879 67.9591 26.7984 68.3154 26.3593H68.3734V26.8813C68.3734 28.2816 67.6277 29.0273 66.418 29.0273C65.432 29.0273 64.8271 28.323 64.5785 27.7264L63.1782 28.3064C63.576 29.2759 64.6448 30.469 66.418 30.469C68.2988 30.469 69.8897 29.3587 69.8897 26.6659V20.1036H68.3651V20.7002H68.3734ZM66.534 25.7544C65.4237 25.7544 64.4957 24.8264 64.4957 23.5504C64.4957 22.2744 65.4237 21.3216 66.534 21.3216C67.6442 21.3216 68.4894 22.2662 68.4894 23.5504C68.4894 24.8347 67.6277 25.7544 66.534 25.7544ZM87.4802 16.2342H83.6357V26.9724H85.2348V22.9042H87.472C89.2534 22.9042 90.9934 21.6199 90.9934 19.565C90.9934 17.5102 89.2451 16.2259 87.472 16.2259L87.4802 16.2342ZM87.5217 21.4127H85.2431V17.7339H87.5217C88.7231 17.7339 89.4025 18.7282 89.4025 19.5733C89.4025 20.4184 88.7231 21.4127 87.5217 21.4127ZM97.4314 19.8716C96.2714 19.8716 95.07 20.3853 94.5728 21.5122L95.998 22.1087C96.3045 21.5122 96.868 21.3216 97.4645 21.3216C98.2931 21.3216 99.1382 21.8187 99.1465 22.7053V22.813C98.8565 22.6473 98.2351 22.3987 97.4728 22.3987C95.94 22.3987 94.374 23.2439 94.374 24.8182C94.374 26.2516 95.6334 27.1796 97.042 27.1796C98.1191 27.1796 98.7157 26.699 99.0885 26.1273H99.1465V26.9559H100.696V22.8379C100.696 20.9322 99.2708 19.8633 97.4314 19.8633V19.8716ZM97.2408 25.7627C96.7188 25.7627 95.9814 25.4976 95.9814 24.8513C95.9814 24.0227 96.8928 23.7079 97.68 23.7079C98.3842 23.7079 98.7157 23.857 99.1465 24.0642C99.0222 25.0584 98.1688 25.7627 97.2408 25.7627ZM106.33 20.1119L104.491 24.7684H104.433L102.527 20.1119H100.804L103.662 26.6244L102.03 30.2453H103.704L108.112 20.1119H106.33ZM91.8882 26.9807H93.4874V16.2424H91.8882V26.9807Z" fill="white"/>
<g id="Group_2">
<path id="Vector_11" d="M8.96607 7.67468C8.7175 7.93983 8.56836 8.34583 8.56836 8.8844V27.8918C8.56836 28.4221 8.7175 28.8364 8.96607 29.1015L9.03236 29.1595L19.6795 18.5124V18.2638L9.03236 7.6084L8.96607 7.67468Z" fill="url(#paint0_linear_1_2359)"/>
<path id="Vector_12" d="M23.2257 22.0592L19.6794 18.5129V18.2643L23.2257 14.718L23.3086 14.7677L27.5094 17.154C28.7109 17.8334 28.7109 18.952 27.5094 19.6314L23.3086 22.0177L23.2257 22.0674V22.0592Z" fill="url(#paint1_linear_1_2359)"/>
<path id="Vector_13" d="M23.3089 22.009L19.6798 18.3799L8.97461 29.085C9.37232 29.5076 10.0269 29.5573 10.7643 29.1347L23.3172 22.0007" fill="url(#paint2_linear_1_2359)"/>
<path id="Vector_14" d="M23.3094 14.7511L10.7565 7.61705C10.0191 7.20277 9.36451 7.25248 8.9668 7.66677L19.6719 18.3719L23.3011 14.7428L23.3094 14.7511Z" fill="url(#paint3_linear_1_2359)"/>
<g id="Group_3">
<path id="Vector_15" opacity="0.2" d="M23.2265 21.9263L10.7565 29.0105C10.0605 29.4083 9.43908 29.3834 9.03308 29.0188L8.9668 29.0851L9.03308 29.1431C9.4308 29.4994 10.0605 29.5325 10.7565 29.1348L23.3094 22.0008L23.2265 21.918V21.9263Z" fill="black"/>
<path id="Vector_16" opacity="0.12" d="M8.96607 28.9609C8.7175 28.6958 8.56836 28.2898 8.56836 27.7512V27.8755C8.56836 28.4058 8.7175 28.8201 8.96607 29.0852L9.03236 29.0189L8.96607 28.9609Z" fill="black"/>
</g>
<path id="Vector_17" opacity="0.12" d="M27.5103 19.499L23.2266 21.935L23.3094 22.0178L27.5103 19.6315C28.1068 19.2918 28.4134 18.8444 28.4134 18.3887C28.3637 18.7947 28.0571 19.1924 27.5103 19.5072V19.499Z" fill="black"/>
<path id="Vector_18" opacity="0.25" d="M10.7558 7.74144L27.5095 17.2617C28.0564 17.5683 28.3629 17.966 28.4126 18.3803C28.4126 17.9329 28.1144 17.4772 27.5095 17.1374L10.7558 7.61716C9.55436 6.93773 8.56836 7.50116 8.56836 8.87659V9.00087C8.56836 7.62544 9.55436 7.06201 10.7558 7.74144Z" fill="white"/>
</g>
</g>
<defs>
<linearGradient id="paint0_linear_1_2359" x1="18.7349" y1="8.67726" x2="4.3095" y2="23.1027" gradientUnits="userSpaceOnUse">
<stop stop-color="#00A1FF"/>
<stop offset="0.26" stop-color="#00BEFF"/>
<stop offset="0.51" stop-color="#00D2FF"/>
<stop offset="0.76" stop-color="#00DFFF"/>
<stop offset="1" stop-color="#00E3FF"/>
</linearGradient>
<linearGradient id="paint1_linear_1_2359" x1="29.0754" y1="18.3803" x2="8.2783" y2="18.3803" gradientUnits="userSpaceOnUse">
<stop stop-color="#FFE000"/>
<stop offset="0.41" stop-color="#FFBD00"/>
<stop offset="0.78" stop-color="#FFA500"/>
<stop offset="1" stop-color="#FF9C00"/>
</linearGradient>
<linearGradient id="paint2_linear_1_2359" x1="21.3369" y1="20.3519" x2="1.78261" y2="39.9062" gradientUnits="userSpaceOnUse">
<stop stop-color="#FF3A44"/>
<stop offset="1" stop-color="#C31162"/>
</linearGradient>
<linearGradient id="paint3_linear_1_2359" x1="6.27394" y1="1.34477" x2="15.0071" y2="10.0779" gradientUnits="userSpaceOnUse">
<stop stop-color="#32A071"/>
<stop offset="0.07" stop-color="#2DA771"/>
<stop offset="0.48" stop-color="#15CF74"/>
<stop offset="0.8" stop-color="#06E775"/>
<stop offset="1" stop-color="#00F076"/>
</linearGradient>
</defs>
</svg>
